<svg version="1.1" id="Layer_1" xmlns="http://www.w3.org/2000/svg" xmlns:xlink="http://www.w3.org/1999/xlink" x="0px" y="0px"
	 width="100%" viewBox="0 0 579 100" enable-background="new 0 0 579 100" xml:space="preserve">
<path fill="#FFFFFF" opacity="1.000000" stroke="none" 
	d="
M427.000000,101.000000 
	C284.666687,101.000000 142.833389,101.000000 1.000057,101.000000 
	C1.000038,67.666695 1.000038,34.333397 1.000019,1.000071 
	C193.999939,1.000047 386.999878,1.000047 579.999878,1.000023 
	C579.999878,34.333263 579.999878,67.666527 579.999939,100.999893 
	C529.166687,101.000000 478.333344,101.000000 427.000000,101.000000 
M199.774384,76.005051 
	C201.884430,75.020523 203.994461,74.035988 206.839081,72.992531 
	C208.993607,71.979568 211.245041,71.127350 213.273056,69.904572 
	C215.007782,68.858627 216.486298,67.387756 218.766068,66.282822 
	C219.023315,66.476128 219.377411,66.893898 219.523972,66.830658 
	C228.118530,63.122879 236.695938,59.375343 245.274994,55.631638 
	C245.311508,55.104191 245.348007,54.576748 245.384521,54.049305 
	C235.606415,48.988617 225.828293,43.927933 215.729523,38.241390 
	C211.519501,36.145142 207.309464,34.048889 202.784714,31.310898 
	C198.536865,29.165602 194.289001,27.020304 189.732285,24.252165 
	C187.503174,23.127180 185.274078,22.002195 182.728775,20.249882 
	C180.189972,19.148062 177.651154,18.046244 174.793610,16.312742 
	C172.527924,15.264010 170.262238,14.215279 167.351303,12.862103 
	C160.842651,9.106631 154.334000,5.351159 147.166794,1.215700 
	C147.166794,8.522130 147.166794,14.761765 147.022385,21.871033 
	C147.550583,24.325161 147.264633,27.755928 148.783295,29.021927 
	C151.595551,31.366293 155.463409,32.444366 159.169540,34.680946 
	C161.113632,35.732231 163.057709,36.783516 165.647507,38.137707 
	C167.729172,39.109287 169.810852,40.080872 172.179520,41.694229 
	C174.486801,42.912529 176.794067,44.130829 179.615997,45.916664 
	C183.727356,47.980377 187.838730,50.044094 191.981003,52.517200 
	C191.981003,52.517200 191.926285,52.924091 191.275894,53.206493 
	C189.501862,54.101242 187.727829,54.995991 185.248718,55.995701 
	C183.043091,57.053543 180.837463,58.111385 177.860504,59.077908 
	C175.561127,60.345734 173.261749,61.613564 170.226166,62.997574 
	C167.817032,64.053833 165.407913,65.110092 162.304199,66.217438 
	C160.190399,67.439079 158.076614,68.660721 155.193939,69.989983 
	C152.144135,71.314339 147.403488,71.002106 147.138870,75.417442 
	C146.654816,83.493980 147.001083,91.620270 147.001083,100.357643 
	C153.395065,97.328766 159.195724,94.580948 165.717010,91.770569 
	C168.827057,90.216629 171.937103,88.662689 175.785385,87.004814 
	C178.670929,85.620682 181.556473,84.236549 185.204926,82.922600 
	C187.484421,81.653084 189.763916,80.383568 192.782242,79.015083 
	C194.869171,78.048111 196.956116,77.081139 199.774384,76.005051 
M291.998627,41.308506 
	C292.680359,39.724766 293.362091,38.141026 294.013489,36.627823 
	C286.452850,31.976141 279.321533,31.438437 272.223145,37.438015 
	C272.054688,36.339931 271.883636,35.224827 271.724640,34.188255 
	C268.708313,34.188255 266.092621,34.188255 263.000122,34.188255 
	C263.000122,35.472485 263.000092,36.598267 263.000092,37.724049 
	C263.000092,50.003540 263.000122,62.283031 263.000122,74.760223 
	C266.156342,74.760223 268.881683,74.760223 272.000183,74.760223 
	C272.000183,67.737991 271.905457,60.946293 272.026184,54.158432 
	C272.152832,47.038807 275.608368,42.792068 282.001892,42.697903 
	C285.017273,42.653492 288.055847,44.182381 291.010040,45.862579 
	C291.211121,51.949425 290.263702,58.356812 291.854279,64.055862 
	C295.089630,75.648254 312.141205,79.511971 320.694794,72.844887 
	C321.562836,72.168282 322.684143,71.816605 323.753387,71.281372 
	C323.948273,72.583138 324.112030,73.677162 324.268097,74.719696 
	C327.197906,74.719696 329.946320,74.719696 332.725220,74.719696 
	C332.725220,61.056210 332.725220,47.674767 332.725220,33.818424 
	C329.389313,35.211761 324.494141,30.906704 323.561798,37.565624 
	C313.487366,30.898628 305.297150,32.332432 297.178680,37.435379 
	C295.227081,38.662075 293.659607,40.499882 291.998627,41.308506 
M336.000000,61.500000 
	C336.000000,71.930046 336.000000,82.360100 336.000000,92.649155 
	C339.367371,92.649155 342.096405,92.649155 345.101532,92.649155 
	C345.101532,85.397507 345.101532,78.491798 345.101532,71.410301 
	C356.801788,78.840691 366.863739,76.287262 373.057434,70.218628 
	C378.707550,64.682579 382.024353,53.192471 376.031036,43.537708 
	C367.978973,30.566381 356.972076,30.747255 344.789062,37.848896 
	C343.459076,31.688490 339.431000,34.557720 336.000000,34.120289 
	C336.000000,43.221756 336.000000,51.860878 336.000000,61.500000 
M396.501831,70.000343 
	C405.524109,77.493813 414.934448,77.661278 424.761200,71.163246 
	C424.949188,72.560631 425.095184,73.645950 425.243225,74.746399 
	C428.126740,74.746399 430.885559,74.746399 433.720154,74.746399 
	C433.720154,55.759941 433.720154,37.028278 433.720154,18.313057 
	C430.703644,18.313057 427.975464,18.313057 425.000000,18.313057 
	C425.000000,21.767740 425.000000,24.911869 425.000000,28.055998 
	C425.000000,31.171658 425.000000,34.287319 425.000000,37.505604 
	C409.583160,31.580812 400.326172,32.621845 394.483978,41.067501 
	C389.032501,48.948261 389.816681,63.150921 396.501831,70.000343 
M380.000000,45.518227 
	C380.000000,55.255066 380.000000,64.991905 380.000000,74.687057 
	C383.643982,74.687057 386.700500,74.687057 390.000000,74.687057 
	C390.000000,67.755554 390.000000,61.134277 390.000000,54.513004 
	C390.000000,47.763912 390.000000,41.014820 390.000000,34.313499 
	C386.354950,34.313499 383.298431,34.313499 380.000000,34.313499 
	C380.000000,37.924706 380.000000,41.224800 380.000000,45.518227 
M380.095154,19.583160 
	C378.602875,23.418142 379.667877,27.926847 382.607666,28.759853 
	C386.092224,29.747215 389.443420,29.026747 390.333832,25.004646 
	C390.707581,23.316313 389.884064,20.029110 388.798981,19.623228 
	C386.377258,18.717403 383.448853,19.166283 380.095154,19.583160 
z"/>
<path fill="#C92127" opacity="1.000000" stroke="none" 
	d="
M336.000000,61.000000 
	C336.000000,51.860878 336.000000,43.221756 336.000000,34.120289 
	C339.431000,34.557720 343.459076,31.688490 344.789062,37.848896 
	C356.972076,30.747255 367.978973,30.566381 376.031036,43.537708 
	C382.024353,53.192471 378.707550,64.682579 373.057434,70.218628 
	C366.863739,76.287262 356.801788,78.840691 345.101532,71.410301 
	C345.101532,78.491798 345.101532,85.397507 345.101532,92.649155 
	C342.096405,92.649155 339.367371,92.649155 336.000000,92.649155 
	C336.000000,82.360100 336.000000,71.930046 336.000000,61.000000 
M363.356201,65.102188 
	C368.851318,62.233189 370.071533,55.512009 368.955597,51.134235 
	C367.752106,46.412918 362.509979,42.216976 357.708984,42.026871 
	C353.764862,41.870693 348.110443,45.889961 346.529785,49.973248 
	C344.589081,54.986671 346.164307,60.482540 350.580139,64.046288 
	C354.325043,67.068588 358.472870,67.134178 363.356201,65.102188 
z"/>
<path fill="#C92127" opacity="1.000000" stroke="none" 
	d="
M396.240173,69.734619 
	C389.816681,63.150921 389.032501,48.948261 394.483978,41.067501 
	C400.326172,32.621845 409.583160,31.580812 425.000000,37.505604 
	C425.000000,34.287319 425.000000,31.171658 425.000000,28.055998 
	C425.000000,24.911869 425.000000,21.767740 425.000000,18.313057 
	C427.975464,18.313057 430.703644,18.313057 433.720154,18.313057 
	C433.720154,37.028278 433.720154,55.759941 433.720154,74.746399 
	C430.885559,74.746399 428.126740,74.746399 425.243225,74.746399 
	C425.095184,73.645950 424.949188,72.560631 424.761200,71.163246 
	C414.934448,77.661278 405.524109,77.493813 396.240173,69.734619 
M403.461212,46.027748 
	C402.322723,48.316486 400.453186,50.520649 400.176849,52.909130 
	C399.172943,61.586105 407.297668,68.723442 414.750153,66.646889 
	C419.537048,65.313072 423.042847,62.238758 423.914856,57.225887 
	C424.871124,51.728451 423.355286,46.884098 418.259430,43.815723 
	C413.127319,40.725517 408.381561,41.686245 403.461212,46.027748 
z"/>
<path fill="#C92127" opacity="1.000000" stroke="none" 
	d="
M291.915497,42.056644 
	C293.659607,40.499882 295.227081,38.662075 297.178680,37.435379 
	C305.297150,32.332432 313.487366,30.898628 323.561798,37.565624 
	C324.494141,30.906704 329.389313,35.211761 332.725220,33.818424 
	C332.725220,47.674767 332.725220,61.056210 332.725220,74.719696 
	C329.946320,74.719696 327.197906,74.719696 324.268097,74.719696 
	C324.112030,73.677162 323.948273,72.583138 323.753387,71.281372 
	C322.684143,71.816605 321.562836,72.168282 320.694794,72.844887 
	C312.141205,79.511971 295.089630,75.648254 291.854279,64.055862 
	C290.263702,58.356812 291.211121,51.949425 291.018311,45.440979 
	C291.026611,45.019382 290.988037,45.066593 291.350983,44.902023 
	C291.813263,43.802761 291.912598,42.868069 291.991364,41.966965 
	C291.970795,42.000561 291.915497,42.056644 291.915497,42.056644 
M317.001709,65.970253 
	C318.355377,64.783623 319.898895,63.753838 321.030548,62.383812 
	C326.573822,55.672813 323.034882,43.917744 314.982635,42.046638 
	C310.308228,40.960442 303.514923,43.687603 301.135925,47.605396 
	C298.232788,52.386337 298.605713,58.442154 302.055237,62.533504 
	C305.700226,66.856735 310.560425,68.053436 317.001709,65.970253 
z"/>
<path fill="#A12927" opacity="1.000000" stroke="none" 
	d="
M216.050171,38.867249 
	C225.828293,43.927933 235.606415,48.988617 245.384521,54.049305 
	C245.348007,54.576748 245.311508,55.104191 245.274994,55.631638 
	C236.695938,59.375343 228.118530,63.122879 219.523972,66.830658 
	C219.377411,66.893898 219.023315,66.476128 218.067474,66.132767 
	C215.219910,64.958244 213.070923,63.933773 210.811005,62.585274 
	C208.757111,61.191708 206.814148,60.122169 205.163315,58.861595 
	C206.649384,56.091984 207.843338,53.513409 209.460693,50.953072 
	C215.522125,50.904877 215.956528,50.275352 213.999603,44.629707 
	C214.683487,42.456753 215.366837,40.662003 216.050171,38.867249 
z"/>
<path fill="#C92127" opacity="1.000000" stroke="none" 
	d="
M291.055237,45.008884 
	C288.055847,44.182381 285.017273,42.653492 282.001892,42.697903 
	C275.608368,42.792068 272.152832,47.038807 272.026184,54.158432 
	C271.905457,60.946293 272.000183,67.737991 272.000183,74.760223 
	C268.881683,74.760223 266.156342,74.760223 263.000122,74.760223 
	C263.000122,62.283031 263.000092,50.003540 263.000092,37.724049 
	C263.000092,36.598267 263.000122,35.472485 263.000122,34.188255 
	C266.092621,34.188255 268.708313,34.188255 271.724640,34.188255 
	C271.883636,35.224827 272.054688,36.339931 272.223145,37.438015 
	C279.321533,31.438437 286.452850,31.976141 294.013489,36.627823 
	C293.362091,38.141026 292.680359,39.724766 291.957062,41.682575 
	C291.915497,42.056644 291.970795,42.000561 291.628571,42.131416 
	C291.186920,43.197048 291.087463,44.131821 290.988037,45.066593 
	C290.988037,45.066593 291.026611,45.019382 291.055237,45.008884 
z"/>
<path fill="#C92127" opacity="1.000000" stroke="none" 
	d="
M380.000000,45.021561 
	C380.000000,41.224800 380.000000,37.924706 380.000000,34.313499 
	C383.298431,34.313499 386.354950,34.313499 390.000000,34.313499 
	C390.000000,41.014820 390.000000,47.763912 390.000000,54.513004 
	C390.000000,61.134277 390.000000,67.755554 390.000000,74.687057 
	C386.700500,74.687057 383.643982,74.687057 380.000000,74.687057 
	C380.000000,64.991905 380.000000,55.255066 380.000000,45.021561 
z"/>
<path fill="#9E1F21" opacity="1.000000" stroke="none" 
	d="
M164.996384,91.833130 
	C159.195724,94.580948 153.395065,97.328766 147.001083,100.357643 
	C147.001083,91.620270 146.654816,83.493980 147.138870,75.417442 
	C147.403488,71.002106 152.144135,71.314339 155.589478,70.348526 
	C156.336288,72.844734 156.687561,74.982391 156.835297,77.468979 
	C155.879578,80.967529 155.127380,84.117142 154.194672,88.022667 
	C157.561768,86.659996 159.763031,85.769135 162.096344,85.200653 
	C163.151047,87.626389 164.073715,89.729759 164.996384,91.833130 
z"/>
<path fill="#AC2324" opacity="1.000000" stroke="none" 
	d="
M209.037292,50.934837 
	C207.843338,53.513409 206.649384,56.091984 204.826233,58.838142 
	C202.831757,58.358685 201.466507,57.711639 199.779846,56.921646 
	C196.947723,55.493832 194.436996,54.208961 191.926285,52.924091 
	C191.926285,52.924091 191.981003,52.517200 192.087708,52.033127 
	C192.799240,51.030575 193.404053,50.512100 194.371948,49.954350 
	C202.497864,47.214493 205.794785,39.990383 202.022675,33.695206 
	C202.399567,32.907383 202.749496,32.430008 203.099442,31.952635 
	C207.309464,34.048889 211.519501,36.145142 215.889847,38.554321 
	C215.366837,40.662003 214.683487,42.456753 213.598267,44.632233 
	C208.530655,44.683750 208.953552,47.928391 209.037292,50.934837 
z"/>
<path fill="#C02324" opacity="1.000000" stroke="none" 
	d="
M202.942078,31.631763 
	C202.749496,32.430008 202.399567,32.907383 201.634979,33.694408 
	C192.615631,35.474346 188.997375,43.496899 194.008865,49.993629 
	C193.404053,50.512100 192.799240,51.030575 192.072266,51.828430 
	C187.838730,50.044094 183.727356,47.980377 179.734329,45.481232 
	C183.248825,38.322201 186.644989,31.598604 190.041153,24.875006 
	C194.289001,27.020304 198.536865,29.165602 202.942078,31.631763 
z"/>
<path fill="#ED2325" opacity="1.000000" stroke="none" 
	d="
M147.166794,21.001400 
	C147.166794,14.761765 147.166794,8.522130 147.166794,1.215700 
	C154.334000,5.351159 160.842651,9.106631 167.635712,13.334995 
	C166.944519,14.881157 165.968903,15.954425 164.614578,16.975435 
	C160.244202,15.635410 156.281281,14.241475 152.237427,13.146461 
	C151.394699,12.918263 149.604111,13.578896 149.392654,14.211657 
	C149.028534,15.301223 149.266266,17.651621 149.764465,17.804853 
	C154.473114,19.253088 156.836075,25.773701 162.990631,24.216721 
	C162.997803,24.651300 163.000122,24.825140 163.001312,25.249281 
	C162.999512,25.666437 162.998840,25.833296 162.562668,26.000065 
	C158.443558,26.264187 155.015915,26.027306 152.078400,23.171740 
	C150.875061,22.001978 148.829315,21.698799 147.166794,21.001400 
z"/>
<path fill="#CB2425" opacity="1.000000" stroke="none" 
	d="
M189.886719,24.563585 
	C186.644989,31.598604 183.248825,38.322201 179.477005,45.197464 
	C176.794067,44.130829 174.486801,42.912529 172.305359,41.188744 
	C172.976166,39.782063 173.521133,38.880863 174.393951,38.125114 
	C176.819763,37.645081 180.251434,37.560360 180.765457,36.292637 
	C182.302292,32.502285 186.627136,28.559837 182.021057,23.716610 
	C182.381378,22.545376 182.713181,21.711298 183.044983,20.877216 
	C185.274078,22.002195 187.503174,23.127180 189.886719,24.563585 
z"/>
<path fill="#E42A27" opacity="1.000000" stroke="none" 
	d="
M163.002441,24.998981 
	C163.000122,24.825140 162.997803,24.651300 163.034348,23.855667 
	C163.713226,21.165148 164.353256,19.096418 164.993286,17.027691 
	C165.968903,15.954425 166.944519,14.881157 167.958344,13.487217 
	C170.262238,14.215279 172.527924,15.264010 174.659668,16.829081 
	C173.939484,19.624014 172.553864,22.048075 172.936447,24.150362 
	C173.689758,28.290028 172.514389,30.477180 167.855438,30.672035 
	C166.141724,28.563829 164.572083,26.781404 163.002441,24.998981 
z"/>
<path fill="#EC2024" opacity="1.000000" stroke="none" 
	d="
M147.094589,21.436216 
	C148.829315,21.698799 150.875061,22.001978 152.078400,23.171740 
	C155.015915,26.027306 158.443558,26.264187 162.527496,26.356861 
	C161.582428,29.159109 160.237030,31.604477 158.891632,34.049843 
	C155.463409,32.444366 151.595551,31.366293 148.783295,29.021927 
	C147.264633,27.755928 147.550583,24.325161 147.094589,21.436216 
z"/>
<path fill="#C92127" opacity="1.000000" stroke="none" 
	d="
M380.411011,19.323193 
	C383.448853,19.166283 386.377258,18.717403 388.798981,19.623228 
	C389.884064,20.029110 390.707581,23.316313 390.333832,25.004646 
	C389.443420,29.026747 386.092224,29.747215 382.607666,28.759853 
	C379.667877,27.926847 378.602875,23.418142 380.411011,19.323193 
z"/>
<path fill="#D92525" opacity="1.000000" stroke="none" 
	d="
M167.999527,30.997818 
	C172.514389,30.477180 173.689758,28.290028 172.936447,24.150362 
	C172.553864,22.048075 173.939484,19.624014 174.819046,17.144922 
	C177.651154,18.046244 180.189972,19.148062 182.886871,20.563551 
	C182.713181,21.711298 182.381378,22.545376 181.662582,23.748043 
	C175.988983,25.292866 176.050842,30.935760 172.670547,33.996834 
	C171.211639,33.663433 170.105209,33.331573 168.891968,32.740463 
	C168.523270,31.986753 168.261398,31.492287 167.999527,30.997818 
z"/>
<path fill="#EC2024" opacity="1.000000" stroke="none" 
	d="
M210.921936,62.909309 
	C213.070923,63.933773 215.219910,64.958244 217.723511,66.043762 
	C216.486298,67.387756 215.007782,68.858627 213.273056,69.904572 
	C211.245041,71.127350 208.993607,71.979568 206.183548,72.826202 
	C204.685684,70.495445 203.843353,68.331009 203.329651,66.010300 
	C206.079483,64.872444 208.500717,63.890881 210.921936,62.909309 
z"/>
<path fill="#AA2022" opacity="1.000000" stroke="none" 
	d="
M165.356689,91.801849 
	C164.073715,89.729759 163.151047,87.626389 162.259857,84.878227 
	C165.527161,82.877930 168.762970,81.522415 172.042191,80.508530 
	C173.072769,82.936363 174.059967,85.022560 175.047150,87.108749 
	C171.937103,88.662689 168.827057,90.216629 165.356689,91.801849 
z"/>
<path fill="#B82123" opacity="1.000000" stroke="none" 
	d="
M175.416260,87.056786 
	C174.059967,85.022560 173.072769,82.936363 172.375549,80.348740 
	C175.764755,78.524681 178.864014,77.202049 182.012360,76.275742 
	C182.854965,78.732178 183.648499,80.792297 184.442017,82.852417 
	C181.556473,84.236549 178.670929,85.620682 175.416260,87.056786 
z"/>
<path fill="#DC2124" opacity="1.000000" stroke="none" 
	d="
M191.601089,53.065292 
	C194.436996,54.208961 196.947723,55.493832 199.629181,57.246597 
	C196.020172,59.425259 192.240387,61.136028 188.344299,62.441826 
	C187.469940,59.988148 186.711868,57.939438 185.953796,55.890736 
	C187.727829,54.995991 189.501862,54.101242 191.601089,53.065292 
z"/>
<path fill="#A82022" opacity="1.000000" stroke="none" 
	d="
M157.038834,77.120049 
	C156.687561,74.982391 156.336288,72.844734 155.973907,70.294724 
	C158.076614,68.660721 160.190399,67.439079 162.697830,66.543076 
	C164.098785,68.927002 165.106110,70.985291 165.949112,73.367378 
	C162.869476,74.834137 159.954147,75.977097 157.038834,77.120049 
z"/>
<path fill="#B32023" opacity="1.000000" stroke="none" 
	d="
M166.113434,73.043579 
	C165.106110,70.985291 164.098785,68.927002 163.045120,66.517532 
	C165.407913,65.110092 167.817032,64.053833 170.646469,63.342251 
	C171.864517,65.740250 172.662277,67.793571 173.255188,70.115204 
	C170.738022,71.270203 168.425735,72.156891 166.113434,73.043579 
z"/>
<path fill="#C72123" opacity="1.000000" stroke="none" 
	d="
M184.823471,82.887512 
	C183.648499,80.792297 182.854965,78.732178 182.169678,75.960052 
	C184.851807,74.221062 187.425705,73.194077 190.047852,72.524147 
	C190.745209,74.958817 191.394302,77.036430 192.043411,79.114059 
	C189.763916,80.383568 187.484421,81.653084 184.823471,82.887512 
z"/>
<path fill="#E32124" opacity="1.000000" stroke="none" 
	d="
M167.855438,30.672039 
	C168.261398,31.492287 168.523270,31.986753 168.549911,32.775536 
	C167.210373,34.658169 166.106094,36.246487 165.001801,37.834801 
	C163.057709,36.783516 161.113632,35.732231 159.030579,34.365395 
	C160.237030,31.604477 161.582428,29.159109 162.962997,26.356949 
	C162.998840,25.833296 162.999512,25.666437 163.001312,25.249279 
	C164.572083,26.781404 166.141724,28.563829 167.855438,30.672039 
z"/>
<path fill="#CC2124" opacity="1.000000" stroke="none" 
	d="
M185.601257,55.943214 
	C186.711868,57.939438 187.469940,59.988148 188.139618,62.709427 
	C185.713486,64.294807 183.375763,65.207619 180.886139,65.755447 
	C180.033463,63.316723 179.332657,61.242973 178.631836,59.169228 
	C180.837463,58.111385 183.043091,57.053543 185.601257,55.943214 
z"/>
<path fill="#BF2123" opacity="1.000000" stroke="none" 
	d="
M178.246185,59.123566 
	C179.332657,61.242973 180.033463,63.316723 180.721970,66.074127 
	C178.293121,67.787483 175.876587,68.817184 173.460037,69.846893 
	C172.662277,67.793571 171.864517,65.740250 171.014572,63.284157 
	C173.261749,61.613564 175.561127,60.345734 178.246185,59.123566 
z"/>
<path fill="#D52124" opacity="1.000000" stroke="none" 
	d="
M192.412827,79.064568 
	C191.394302,77.036430 190.745209,74.958817 190.380249,72.364944 
	C192.626511,70.948792 194.588638,70.048897 196.664429,69.554504 
	C197.533081,72.011391 198.288071,74.062775 199.043060,76.114159 
	C196.956116,77.081139 194.869171,78.048111 192.412827,79.064568 
z"/>
<path fill="#E12124" opacity="1.000000" stroke="none" 
	d="
M199.408722,76.059601 
	C198.288071,74.062775 197.533081,72.011391 196.862061,69.289490 
	C198.964386,67.801506 200.982712,66.984039 203.001038,66.166580 
	C203.843353,68.331009 204.685684,70.495445 205.816254,72.855667 
	C203.994461,74.035988 201.884430,75.020523 199.408722,76.059601 
z"/>
<path fill="#DA2124" opacity="1.000000" stroke="none" 
	d="
M165.324661,37.986252 
	C166.106094,36.246487 167.210373,34.658169 168.656723,33.034782 
	C170.105209,33.331573 171.211639,33.663433 172.677429,34.346569 
	C173.379883,35.791782 173.723007,36.885723 174.066132,37.979668 
	C173.521133,38.880863 172.976166,39.782063 172.161850,40.867859 
	C169.810852,40.080872 167.729172,39.109287 165.324661,37.986252 
z"/>
<path fill="#FFFFFF" opacity="1.000000" stroke="none" 
	d="
M363.087646,65.389282 
	C358.472870,67.134178 354.325043,67.068588 350.580139,64.046288 
	C346.164307,60.482540 344.589081,54.986671 346.529785,49.973248 
	C348.110443,45.889961 353.764862,41.870693 357.708984,42.026871 
	C362.509979,42.216976 367.752106,46.412918 368.955597,51.134235 
	C370.071533,55.512009 368.851318,62.233189 363.087646,65.389282 
z"/>
<path fill="#FFFFFF" opacity="1.000000" stroke="none" 
	d="
M403.736298,45.755974 
	C408.381561,41.686245 413.127319,40.725517 418.259430,43.815723 
	C423.355286,46.884098 424.871124,51.728451 423.914856,57.225887 
	C423.042847,62.238758 419.537048,65.313072 414.750153,66.646889 
	C407.297668,68.723442 399.172943,61.586105 400.176849,52.909130 
	C400.453186,50.520649 402.322723,48.316486 403.736298,45.755974 
z"/>
<path fill="#FFFFFF" opacity="1.000000" stroke="none" 
	d="
M316.598267,65.992661 
	C310.560425,68.053436 305.700226,66.856735 302.055237,62.533504 
	C298.605713,58.442154 298.232788,52.386337 301.135925,47.605396 
	C303.514923,43.687603 310.308228,40.960442 314.982635,42.046638 
	C323.034882,43.917744 326.573822,55.672813 321.030548,62.383812 
	C319.898895,63.753838 318.355377,64.783623 316.598267,65.992661 
z"/>
<path fill="#FFFFFF" opacity="1.000000" stroke="none" 
	d="
M291.350983,44.902023 
	C291.087463,44.131821 291.186920,43.197048 291.649139,42.097824 
	C291.912598,42.868069 291.813263,43.802761 291.350983,44.902023 
z"/>
<path fill="#FFFFFF" opacity="1.000000" stroke="none" 
	d="
M203.329651,66.010300 
	C200.982712,66.984039 198.964386,67.801506 196.748398,68.883987 
	C194.588638,70.048897 192.626511,70.948792 190.332001,72.007889 
	C187.425705,73.194077 184.851807,74.221062 182.120590,75.563736 
	C178.864014,77.202049 175.764755,78.524681 172.332153,80.007111 
	C168.762970,81.522415 165.527161,82.877930 162.127808,84.555862 
	C159.763031,85.769135 157.561768,86.659996 154.194672,88.022667 
	C155.127380,84.117142 155.879578,80.967529 156.835297,77.468979 
	C159.954147,75.977097 162.869476,74.834137 165.949112,73.367378 
	C168.425735,72.156891 170.738022,71.270203 173.255188,70.115204 
	C175.876587,68.817184 178.293121,67.787483 180.873840,66.439102 
	C183.375763,65.207619 185.713486,64.294807 188.255920,63.114403 
	C192.240387,61.136028 196.020172,59.425259 199.950592,57.389542 
	C201.466507,57.711639 202.831757,58.358685 204.534119,59.029182 
	C206.814148,60.122169 208.757111,61.191708 210.811005,62.585278 
	C208.500717,63.890881 206.079483,64.872444 203.329651,66.010300 
z"/>
<path fill="#B14939" opacity="1.000000" stroke="none" 
	d="
M209.460693,50.953075 
	C208.953552,47.928391 208.530655,44.683750 213.597717,45.010437 
	C215.956528,50.275352 215.522125,50.904877 209.460693,50.953075 
z"/>
<path fill="#BB3D31" opacity="1.000000" stroke="none" 
	d="
M194.371948,49.954353 
	C188.997375,43.496899 192.615631,35.474346 201.608032,34.004856 
	C205.794785,39.990383 202.497864,47.214493 194.371948,49.954353 
z"/>
<path fill="#EF4132" opacity="1.000000" stroke="none" 
	d="
M164.614578,16.975433 
	C164.353256,19.096418 163.713226,21.165148 163.029495,23.594929 
	C156.836075,25.773701 154.473114,19.253088 149.764465,17.804853 
	C149.266266,17.651621 149.028534,15.301223 149.392654,14.211657 
	C149.604111,13.578896 151.394699,12.918263 152.237427,13.146461 
	C156.281281,14.241475 160.244202,15.635410 164.614578,16.975433 
z"/>
<path fill="#D8503D" opacity="1.000000" stroke="none" 
	d="
M174.393951,38.125114 
	C173.723007,36.885723 173.379883,35.791782 173.029907,34.348106 
	C176.050842,30.935760 175.988983,25.292866 181.634048,24.085197 
	C186.627136,28.559837 182.302292,32.502285 180.765457,36.292637 
	C180.251434,37.560360 176.819763,37.645081 174.393951,38.125114 
z"/>
</svg>